<?xml version="1.0" encoding="UTF-8"?>
<svg xmlns="http://www.w3.org/2000/svg" id="_Шар_1" data-name="Шар 1" viewBox="0 0 800 527.47">
  <defs>
    <style>
      .cls-1 {
        fill: #fec602;
      }

      .cls-2 {
        fill: #18181a;
      }

      .cls-3 {
        fill: #fec506;
      }
    </style>
  </defs>
  <path class="cls-2" d="M251.92,319.63c-.58,0-.87-.36-.87-1.01v-66.72c0-.72,.29-1.08,.87-1.08h5.42c.52,0,.8,.36,.8,1.08v66.72c0,.65-.29,1.01-.8,1.01h-5.42Z"></path>
  <path class="cls-2" d="M330.84,319.63c-.13,.02-.27,0-.39-.07-.12-.06-.21-.17-.27-.29l-52.56-61.23h-2.11v60.59c0,.13-.01,.27-.06,.4-.04,.13-.12,.25-.21,.35-.1,.09-.22,.17-.35,.21-.13,.03-.27,.03-.41,0h-6.92c-.13,.03-.27,.03-.41,0-.13-.05-.24-.12-.34-.21-.1-.1-.18-.22-.22-.35-.05-.13-.06-.26-.05-.4v-66.72c0-.72,.36-1.08,1.01-1.08h15.29c.31,.04,.59,.19,.79,.43l49.11,57.91v-57.27c-.04-.14-.04-.29,0-.43,.05-.14,.13-.27,.23-.38,.11-.1,.24-.18,.38-.23,.15-.03,.3-.03,.44,0h6.92c.65,0,1.01,.36,1.01,1.08v66.72c.02,.13,0,.27-.05,.4-.04,.13-.11,.25-.21,.35s-.22,.17-.35,.21c-.13,.03-.27,.03-.41,0h-9.89Z"></path>
  <path class="cls-2" d="M429.44,299.43c.1,.12,.16,.28,.15,.43,0,7.38-2.32,12.62-6.99,16.01-3.85,2.53-9.75,3.83-17.68,3.83h-24.9c-4.17,.07-8.34-.24-12.45-.92-3.02-.46-5.92-1.46-8.59-2.95-2.05-1.35-3.79-3.13-5.1-5.2-1.46-2.31-2.44-4.88-2.9-7.57-.65-3.53-1.02-10.6-1.02-21.21,0-12.33,2.26-20.7,6.77-25.1h-.06c4.44-4.3,12.82-6.46,25.11-6.46h23.05c8.23,0,14.34,1.66,18.44,4.91,4.1,3.25,6.19,8.23,6.19,14.75v.22c0,.65-.29,1.01-.88,1.01h-6.91c-.13,.03-.27,.03-.41,0-.13-.04-.25-.12-.35-.21-.1-.1-.17-.21-.22-.34-.04-.13-.06-.27-.05-.41v-.22c0-7.14-5.31-10.74-15.94-10.74h-23.64c-3.37-.04-6.73,.23-10.04,.79-2.19,.35-4.33,1-6.34,1.95-2.77,1.66-4.61,4.77-5.39,9.22-.39,2.02-.58,4.07-.58,6.13-.07,2.89-.07,6.46-.07,10.89-.05,3.96,.22,7.92,.8,11.83,.58,3.1,1.31,5.27,2.33,6.56,2.55,2.89,8.36,4.33,17.32,4.33h25.54c5.16,0,9.03-.65,11.5-1.84,2.99-1.36,4.51-4.33,4.51-8.8v-.36c-.03-.13-.03-.27,0-.41,.05-.13,.12-.25,.22-.34,.1-.1,.22-.17,.35-.21,.13-.05,.27-.06,.41-.05h7.05c.07,0,.07,.06,.07,.14l.66,.34Z"></path>
  <path class="cls-2" d="M515.72,299.95c-.32,2.93-1.05,5.79-2.18,8.51-1.08,2.14-2.56,4.05-4.37,5.63-1.88,1.59-4.08,2.74-6.46,3.38v.15c-2.69,.76-5.44,1.26-8.23,1.51-4.09,.41-8.19,.61-12.3,.58h-10.64c-11.16,0-18.87-1.01-23.15-3.03-4.8-2.08-8.08-5.98-9.75-11.61-.71-2.88-1.13-5.83-1.24-8.8-.3-3.75-.37-8.44-.37-13.99-.02-4,.17-8.01,.58-11.99,.28-2.88,.99-5.71,2.11-8.37,1.07-2.14,2.56-4.06,4.37-5.63,1.94-1.64,4.19-2.86,6.62-3.61h.07c4.08-1.36,10.98-2.08,20.74-2.08h10.62c10.7,0,18.34,1.08,23.05,3.17,2.32,.99,4.37,2.52,5.97,4.47,1.74,2.13,2.98,4.61,3.64,7.28,.55,2.89,.91,5.8,1.09,8.73,.3,3.74,.44,8.44,.44,13.99,.03,3.91-.19,7.82-.65,11.7Zm-8.14-17.82c.02-3.2-.13-6.4-.44-9.59-.17-2.18-.73-4.3-1.67-6.27-1.02-2.96-3.35-4.83-6.92-5.63-2.84-.73-8.37-1.09-16.6-1.09h-10.55c-8.23,0-13.75,.36-16.66,1.09-3.5,.79-5.89,2.67-7.14,5.63-1.38,3.17-2.1,8.51-2.1,15.86v5.98c0,7.38,.72,12.7,2.1,15.87,.66,1.44,1.67,2.69,2.92,3.66s2.73,1.61,4.29,1.88c2.84,.72,8.37,1.08,16.6,1.08h10.56c8.14,0,13.6-.36,16.44-1.08,3.57-.79,5.89-2.67,6.99-5.53,.94-1.97,1.5-4.1,1.67-6.27,.32-3.19,.47-6.39,.44-9.6v-5.98h.06Z"></path>
  <path class="cls-2" d="M592.54,319.63c-.13,.03-.27,.03-.41,0-.13-.04-.25-.12-.35-.21-.1-.1-.18-.22-.22-.35-.04-.13-.06-.26-.05-.4,0-1.84,.07-4.77,.37-8.59,.14-1.84,.29-3.47,.36-4.76,.07-1.29,.07-2.31,.07-3.03,.04-2.04-.18-4.07-.65-6.06-.33-1.42-.93-2.76-1.75-3.97-1.25-1.31-2.85-2.24-4.61-2.67-2.35-.6-4.78-.87-7.2-.79h-44.54v29.86c.02,.13,0,.27-.05,.4-.05,.13-.12,.25-.22,.35-.1,.09-.21,.17-.34,.21-.14,.03-.28,.03-.41,0h-6.98c-.13,.03-.27,.03-.41,0-.13-.05-.25-.12-.35-.21-.1-.1-.18-.22-.22-.35-.03-.13-.03-.27,0-.4v-66.77c-.03-.14-.02-.29,.02-.43,.04-.14,.11-.27,.21-.37,.1-.11,.22-.19,.36-.23,.14-.05,.28-.06,.43-.05h48.69c15.58,0,23.36,6.13,23.36,18.39,.05,2.72-.37,5.43-1.24,8-.63,2.03-1.93,3.78-3.69,4.98,2.79,1.33,5.02,3.62,6.26,6.46,.68,1.51,1.15,3.12,1.38,4.76,.27,1.91,.4,3.84,.37,5.77v19.54c0,.65-.3,1.01-.81,1.01h-7.38v-.11Zm-16.41-59.33h-42.55v19.03h42.14c8.73,0,13.02-3.25,13.02-9.66,.07-6.29-4.15-9.37-12.62-9.37Z"></path>
  <path class="cls-2" d="M678.34,319.63h-.65c0-.07-.06-.15-.15-.36l.15,.15-8.22-16.02h-46.22l-8.15,16.02v.21h-8.3c-.13,.03-.27,.03-.41,0-.13-.05-.24-.12-.34-.21-.1-.1-.18-.22-.22-.35-.05-.13-.06-.26-.05-.4v-.07c0-.08,.02-.17,.06-.24,.04-.08,.09-.14,.16-.19v.21l34.43-67.32c.09-.08,.19-.13,.3-.17,.11-.04,.23-.05,.35-.05h10.76c.22,0,.37,0,.37,.07s.07,.07,.15,.14l34.64,67.32v-.2c.08,.13,.13,.28,.15,.43v.07c0,.65-.29,1.01-.92,1.01l-7.88-.06Zm-50.51-24.81h36.97l-18.33-36.07-18.64,36.07Z"></path>
  <path class="cls-2" d="M209.57,234.95h-24.67l-12.68,40.9h-5.03l-6.92-9.53-47.43,26.33,24.33,50.06h29.6l14.26-35.13,3.86,4.19h7.71l39.3-20.63v-10.32l-22.34-45.87Zm-57.56,88.28c-1.97,2.96-3.94,5.91-6.04,8.8l-.92,1.37-.92-1.59c-7.05-11.4-13.32-23.05-19.21-34.91l-1.16-2.31,2.25-1.3c10.92-6.2,22.05-12.11,33.41-17.52l1.52-.72,.44,1.36c1.46,4.11,2.9,8.23,4.15,12.41-2.11-3.25-4-6.57-5.9-9.89-9.31,6.28-18.92,12.19-28.67,17.82,5.24,10.61,10.14,21.35,14.55,32.38,2.06-2.02,4.24-3.97,6.5-5.91Zm72.71-36.35c-10.92,6.21-22.06,12.12-33.41,17.52l-1.52,.72-.44-1.37c-1.46-4.1-2.9-8.22-4.15-12.4,2.11,3.25,4,6.57,5.9,9.89,9.31-6.28,18.92-12.19,28.67-17.82-5.24-10.61-10.19-21.35-14.55-32.39-2.11,2.02-4.3,4.04-6.46,5.99,1.96-2.96,3.93-5.92,6.04-8.81l.92-1.36,.92,1.59c6.98,11.32,13.17,23.05,19.14,34.83l1.16,2.31-2.22,1.3Z"></path>
  <path class="cls-1" d="M196.14,184.76l-21.26,21.06,21.26,21.06,21.27-21.06-21.27-21.06Z"></path>
  <path class="cls-3" d="M198.65,257.03l6.46-5.99,14.55,32.39-28.64,17.82-5.83-9.89,13.46-34.32Z"></path>
  <path class="cls-2" d="M190.94,301.73l-6.11-10.31,13.61-34.62,6.84-6.27,14.89,33.1-29.23,18.1Zm-5.39-10.38l5.61,9.38,28.09-17.46-14.19-31.66-6.04,5.53-13.46,34.2Z"></path>
  <path class="cls-3" d="M151.93,323.23l-6.46,5.98-14.55-32.38,28.67-17.82,5.9,9.81-13.57,34.4Z"></path>
  <path class="cls-2" d="M145.31,329.8l-14.85-33.11,29.25-18.18,6.11,10.37-13.61,34.68-6.91,6.23Zm-13.98-32.89l14.19,31.62,6.04-5.53,13.39-34.12-5.6-9.37-28.03,17.4Z"></path>
</svg>
