<?xml version="1.0" encoding="UTF-8"?>
<svg xmlns="http://www.w3.org/2000/svg" id="_Шар_1" data-name="Шар 1" viewBox="0 0 800 527.47">
  <defs>
    <style>
      .cls-1 {
        fill: navy;
      }
    </style>
  </defs>
  <path class="cls-1" d="M244.95,217.78h-.57c-30.12,0-48.11,19.73-48.11,52.76,0,23.38,15.24,48.59,48.7,48.59s48.38-25.18,48.38-48.59c-.03-33.03-18.1-52.76-48.4-52.76Zm0,13.3c14.19,.1,33.06,4.16,33.06,38.24,.02,24.68-10.91,36.68-33.27,36.68s-33.15-12.41-33.15-36.71c0-16.36,3.44-38.18,33.33-38.21h.03Z"></path>
  <path class="cls-1" d="M650.82,284.21l-.13,.4c-6,21.34-25.09,21.42-31.33,21.44-20.87-.05-32-11.18-33.08-33.07h79.65v-2.44c0-34-16.5-52.78-46.47-52.78h-.43c-30.18,0-48.2,19.72-48.2,52.78,0,24.18,14.78,48.59,47.78,48.59h.9c33.42,0,43.6-23.94,46.42-34.22l.21-.7h-15.32Zm-64.28-22.49c2.69-27.42,20.1-30.61,33-30.61,13.06,.07,28.35,3.66,31,30.61h-64Z"></path>
  <path class="cls-1" d="M147.92,236.14v-17.46h-14.06v98.8h15.29v-63.26c0-14.27,3.88-23.11,23-23.11h23.57v-13.33h-20.35c-12.34,0-23.85,7.63-27.45,18.36Z"></path>
  <path class="cls-1" d="M350.36,217.78h-15.33v99.7h15.34v-99.7Z"></path>
  <path class="cls-1" d="M543.74,275.74c0,25.06-17,30.31-31.33,30.31-11.59,0-27-3.21-27-31v-57.27h-15.33v56.29c0,19.33,4.17,45.06,40.1,45.06h2.16c14.08,0,26.06-8.39,32.51-22.59v20.94h14.32v-99.7h-15.4l-.03,57.96Z"></path>
  <path class="cls-1" d="M440.79,237.06c-6.53-12.68-17.74-19.15-33.31-19.28h-.8c-28.61,0-45,19.23-45,52.76,0,23.48,11.38,48.59,43.38,48.59h2.16c17.28,0,27-9.77,32.36-18.73v70.73h15.65V217.78h-14.44v19.28Zm-1.37,24.11v14.57c0,27.17-18.32,30.31-32.12,30.31-8.26,0-30.15,0-30.15-36.71,0-18.9,3.59-38.23,30.33-38.23,14.85-.03,31.94,3.41,31.94,30.06Z"></path>
  <path class="cls-1" d="M319.7,156.34h-15.35v161.14h15.35V156.34Z"></path>
  <path class="cls-1" d="M350.36,156.34h-15.33v37.43h15.34v-37.43Z"></path>
</svg>
